<svg width="205" height="40" viewBox="0 0 205 40" fill="none" xmlns="http://www.w3.org/2000/svg">
<path d="M21.2303 20.495C21.5516 21.3866 21.3596 22.4322 20.6258 23.1598C19.62 24.157 17.9919 24.157 16.986 23.1598C15.9802 22.1626 15.9799 20.5485 16.986 19.5511C17.7162 18.8272 18.7712 18.6321 19.6739 18.9519L27.0662 11.623L10.9256 14.5864L6.39624 24.6899C6.67124 24.9625 14.4791 32.7032 15.4427 33.6585L25.6337 29.1681L28.6228 13.1662L21.2303 20.495Z" fill="#F2A25C"/>
<path d="M4.65047 25.3644L0 27.9713L12.133 40L14.7514 35.3787C13.9101 34.5444 5.25902 25.9677 4.65047 25.3644Z" fill="#F2A25C"/>
<path d="M17.948 21.3555C17.948 21.8256 18.3319 22.206 18.8059 22.206C19.0351 22.206 19.2505 22.1176 19.4124 21.957L19.4125 21.9569C19.7478 21.6246 19.7478 21.0866 19.4125 20.7541C19.2505 20.5935 19.035 20.5049 18.8059 20.5049C18.3317 20.5049 17.948 20.8854 17.948 21.3555Z" fill="#F2A25C"/>
<path d="M17.1103 9.71222L17.6891 11.268C17.7109 11.3267 17.7671 11.3655 17.83 11.3655C17.8929 11.3655 17.9492 11.3266 17.9709 11.268L18.5497 9.71222C19.0183 8.45266 20.0197 7.45986 21.2901 6.99548L22.8593 6.42165C22.9184 6.40009 22.9575 6.3442 22.9575 6.28195C22.9575 6.21956 22.9184 6.16381 22.8593 6.14225L21.2899 5.56842C20.0196 5.10391 19.0182 4.11111 18.5497 2.85168L17.9709 1.29589C17.9492 1.23733 17.8929 1.19855 17.83 1.19855C17.7671 1.19855 17.7109 1.23733 17.6891 1.29589L17.1103 2.85168C16.6418 4.11111 15.6405 5.10391 14.37 5.56842L12.8006 6.14225C12.7415 6.16381 12.7024 6.21956 12.7024 6.28195C12.7024 6.34433 12.7415 6.40009 12.8006 6.42165L14.3699 6.99548C15.6404 7.45986 16.6418 8.45266 17.1103 9.71222Z" fill="#F2A25C"/>
<path d="M37.9561 9.62889L36.8896 9.23901C36.0263 8.92326 35.3457 8.24852 35.0273 7.39261L34.6339 6.33525C34.6191 6.29557 34.5809 6.26904 34.5382 6.26904C34.4955 6.26904 34.4573 6.29557 34.4423 6.33525L34.0491 7.39248C33.7307 8.24852 33.0501 8.92326 32.1866 9.23901L31.1202 9.62889C31.0801 9.64356 31.0535 9.68145 31.0535 9.72381C31.0535 9.76616 31.0801 9.80405 31.1202 9.81872L32.1868 10.2086C33.0501 10.5243 33.7307 11.1991 34.0491 12.055L34.4423 13.1125C34.4573 13.1523 34.4955 13.1787 34.5382 13.1787C34.5809 13.1787 34.6191 13.1523 34.6339 13.1125L35.0273 12.055C35.3457 11.1991 36.0262 10.5243 36.8896 10.2087L37.9561 9.81872C37.9963 9.80405 38.0229 9.76616 38.0229 9.72381C38.0229 9.68145 37.9963 9.64356 37.9561 9.62889Z" fill="#F2A25C"/>
<path d="M35.3725 23.5484L34.6285 23.2764C34.0263 23.0562 33.5516 22.5856 33.3294 21.9886L33.0551 21.2511C33.0448 21.2235 33.018 21.2051 32.9883 21.2051C32.9585 21.2051 32.9317 21.2235 32.9215 21.2511L32.647 21.9886C32.4249 22.5857 31.9502 23.0563 31.3481 23.2764L30.6041 23.5484C30.5761 23.5586 30.5576 23.5851 30.5576 23.6146C30.5576 23.6442 30.5761 23.6707 30.6041 23.6808L31.348 23.9529C31.9503 24.1731 32.4251 24.6439 32.6472 25.241L32.9215 25.9785C32.9318 26.0062 32.9586 26.0245 32.9883 26.0245C33.0182 26.0245 33.0448 26.0062 33.0551 25.9785L33.3296 25.241C33.5517 24.6439 34.0264 24.1731 34.6286 23.9529L35.3725 23.6808C35.4006 23.6707 35.4191 23.6442 35.4191 23.6146C35.4191 23.5851 35.4006 23.5586 35.3725 23.5484Z" fill="#F2A25C"/>
<path d="M29.8857 2.34345L29.1418 2.07145C28.5396 1.85126 28.0649 1.38063 27.8429 0.783569L27.5684 0.0461796C27.5581 0.018368 27.5313 0 27.5016 0C27.4718 0 27.4451 0.018369 27.4348 0.0460531L27.1605 0.783443C26.9384 1.3805 26.4635 1.85126 25.8613 2.07145L25.1174 2.34345C25.0893 2.35352 25.0708 2.38006 25.0708 2.40966C25.0708 2.43913 25.0893 2.46566 25.1174 2.47574L25.8613 2.74786C26.4635 2.96806 26.9384 3.43882 27.1605 4.03587L27.4348 4.77339C27.4451 4.80108 27.4718 4.81945 27.5016 4.81945C27.5315 4.81945 27.5581 4.80108 27.5684 4.77339L27.8429 4.03587C28.0649 3.43869 28.5396 2.96806 29.1419 2.74799L29.8859 2.47587C29.9138 2.46566 29.9324 2.43925 29.9324 2.40966C29.9324 2.38019 29.9138 2.35365 29.8857 2.34345Z" fill="#F2A25C"/>
<path d="M55.9647 31.5334C54.1935 31.5334 52.5359 31.2193 50.986 30.5986C49.4366 29.978 48.0762 29.0686 46.9062 27.864C45.7354 26.66 44.8182 25.18 44.1605 23.43C43.5029 21.6807 43.1733 19.68 43.1733 17.4219C43.1733 14.462 43.7302 11.928 44.8438 9.8273C45.9573 7.72599 47.4818 6.11457 49.417 4.9919C51.3531 3.86923 53.5358 3.31134 55.9647 3.31134C59.3304 3.31134 62.0001 4.08267 63.967 5.63132C65.9345 7.1806 67.2626 9.35667 67.9586 12.1539L63.2905 12.888C62.7713 11.2819 61.924 9.99659 60.7472 9.03735C59.5704 8.07733 58.0715 7.60057 56.2492 7.60057C54.4147 7.57595 52.8903 7.97067 51.6758 8.78589C50.4614 9.60123 49.5502 10.7493 48.9363 12.2293C48.323 13.7093 48.013 15.44 48.013 17.4219C48.013 19.4039 48.3163 21.122 48.9242 22.5833C49.5314 24.0446 50.4486 25.1859 51.6691 26.0013C52.8903 26.8166 54.4147 27.2374 56.2492 27.262C57.6284 27.2746 58.8368 27.0239 59.8743 26.5159C60.9113 26.0079 61.7593 25.2366 62.4169 24.2013C63.0752 23.1667 63.5177 21.8747 63.7456 20.3193H58.9256V16.7634H68.6042C68.629 16.9639 68.6485 17.2592 68.6606 17.648C68.6734 18.0366 68.6801 18.2686 68.6801 18.344C68.6801 20.9027 68.1738 23.1733 67.1557 25.1613C66.137 27.1493 64.6756 28.7106 62.7781 29.8399C60.8797 30.9686 58.6089 31.5334 55.9647 31.5334ZM72.4755 30.9686V10.6486H76.5176V15.5973L76.0246 14.9573C76.2774 14.28 76.6191 13.6593 77.0427 13.1013C77.4663 12.5426 77.9727 12.0853 78.5672 11.7213C79.0736 11.3826 79.6363 11.1126 80.2503 10.9186C80.8636 10.7239 81.4904 10.6046 82.1352 10.5612C82.7808 10.5172 83.4069 10.5486 84.014 10.6486V14.882C83.4069 14.7066 82.7108 14.6499 81.9201 14.7126C81.1292 14.7753 80.4143 14.9953 79.7823 15.3712C79.1495 15.71 78.6371 16.1426 78.2383 16.6693C77.8395 17.196 77.5424 17.792 77.3527 18.4633C77.1632 19.134 77.0683 19.8619 77.0683 20.6393V30.9686H72.4755ZM92.8769 31.5334C91.3969 31.5334 90.1441 31.2507 89.1192 30.6926C88.0945 30.1346 87.3224 29.3947 86.7979 28.4659C86.2728 27.5379 86.0072 26.5159 86.0072 25.3993C86.0072 24.4212 86.1712 23.5366 86.5008 22.7527C86.8296 21.9686 87.3353 21.2913 88.0185 20.7206C88.7016 20.15 89.5873 19.686 90.6754 19.3227C91.4977 19.0586 92.466 18.8207 93.573 18.6073C94.6798 18.3939 95.8822 18.1934 97.1787 18.0113C98.4758 17.83 99.8294 17.6353 101.246 17.4219L99.6142 18.344C99.627 16.9393 99.3103 15.9046 98.6655 15.2393C98.0198 14.5747 96.9318 14.2426 95.4013 14.2426C94.4773 14.2426 93.5857 14.4553 92.7249 14.882C91.8649 15.3086 91.2637 16.0427 90.9221 17.0833L86.7468 15.7852C87.2532 14.0667 88.2209 12.6873 89.6445 11.6459C91.068 10.6046 92.9845 10.0846 95.4013 10.0846C97.2231 10.0846 98.8295 10.3793 100.215 10.9686C101.601 11.558 102.625 12.524 103.296 13.866C103.663 14.5813 103.884 15.3086 103.96 16.0547C104.036 16.8012 104.074 17.6166 104.074 18.4947V30.9686H100.07V26.5659L100.734 27.2806C99.8106 28.7486 98.7347 29.8207 97.5014 30.5046C96.2674 31.188 94.7242 31.5334 92.8769 31.5334ZM93.7881 27.9207C94.8257 27.9207 95.7113 27.7386 96.445 27.3753C97.1787 27.0113 97.767 26.5659 98.2035 26.0393C98.6399 25.5127 98.9311 25.0167 99.083 24.5527C99.323 23.976 99.4623 23.3113 99.4939 22.5646C99.5254 21.8187 99.5382 21.2167 99.5382 20.752L100.942 21.166C99.5638 21.3793 98.3809 21.5672 97.3938 21.7307C96.4067 21.894 95.5593 22.044 94.8507 22.1887C94.1425 22.3327 93.5158 22.496 92.9718 22.6713C92.4406 22.8593 91.9913 23.0793 91.6242 23.33C91.2577 23.5807 90.9793 23.8694 90.783 24.1953C90.5872 24.5213 90.4857 24.904 90.4857 25.3434C90.4857 25.8446 90.6121 26.284 90.8656 26.6666C91.1185 27.0487 91.4916 27.356 91.9786 27.582C92.466 27.808 93.0666 27.9207 93.7881 27.9207ZM118.858 31.5334C116.859 31.5334 115.183 31.0626 113.829 30.122C112.475 29.1814 111.457 27.8953 110.774 26.2714C110.09 24.6467 109.749 22.828 109.749 20.8087C109.749 18.764 110.09 16.9327 110.774 15.3146C111.457 13.6967 112.462 12.4173 113.785 11.4826C115.107 10.5486 116.739 10.0846 118.687 10.0846C120.623 10.0846 122.305 10.5486 123.729 11.4826C125.153 12.4173 126.253 13.6907 127.037 15.302C127.822 16.914 128.214 18.752 128.214 20.8087C128.214 22.8406 127.828 24.6659 127.056 26.284C126.285 27.902 125.196 29.1814 123.792 30.122C122.388 31.0626 120.743 31.5334 118.858 31.5334ZM108.971 40V10.6486H113.013V24.9106H113.582V40H108.971ZM118.156 27.4693C119.345 27.4693 120.326 27.1746 121.097 26.5847C121.869 25.9953 122.445 25.1927 122.818 24.1827C123.191 23.1733 123.375 22.0506 123.375 20.8087C123.375 19.5794 123.185 18.4567 122.805 17.4473C122.426 16.4373 121.837 15.6347 121.041 15.0387C120.244 14.4433 119.231 14.1487 118.004 14.1487C116.84 14.1487 115.891 14.424 115.157 14.9826C114.424 15.5407 113.886 16.318 113.538 17.3153C113.19 18.3127 113.013 19.4793 113.013 20.8087C113.013 22.126 113.19 23.286 113.538 24.2893C113.886 25.2926 114.436 26.0707 115.189 26.6287C115.942 27.1866 116.929 27.4693 118.156 27.4693ZM146.566 30.9686V21.1853C146.566 20.5454 146.522 19.8367 146.433 19.0586C146.345 18.2813 146.143 17.5287 145.82 16.8073C145.497 16.0859 145.016 15.4967 144.377 15.0327C143.738 14.5687 142.872 14.3366 141.784 14.3366C141.201 14.3366 140.626 14.4306 140.057 14.6187C139.487 14.8066 138.975 15.1267 138.513 15.5847C138.052 16.0427 137.678 16.6693 137.4 17.4659C137.122 18.2626 136.982 19.2847 136.982 20.5266L134.268 19.3787C134.268 17.648 134.61 16.0799 135.287 14.6753C135.964 13.2706 136.957 12.1479 138.273 11.3133C139.589 10.4793 141.208 10.0652 143.131 10.0652C144.649 10.0652 145.902 10.3167 146.889 10.8179C147.875 11.3199 148.66 11.9594 149.242 12.7373C149.824 13.5146 150.254 14.3426 150.532 15.2206C150.811 16.0987 150.994 16.9267 151.076 17.7106C151.159 18.4947 151.197 19.134 151.197 19.6234V30.9686H146.566ZM132.352 30.9686V3.87522H136.432V18.1374H136.982V30.9686H132.352ZM156.511 7.56333V3.40523H161.084V7.56333H156.511ZM156.511 30.9686V10.6486H161.084V30.9686H156.511ZM175.679 31.5334C173.566 31.5334 171.763 31.0626 170.27 30.128C168.777 29.194 167.638 27.9207 166.848 26.3026C166.057 24.6847 165.652 22.8533 165.64 20.8087C165.652 18.7266 166.069 16.8766 166.886 15.2646C167.702 13.6527 168.859 12.386 170.365 11.464C171.871 10.542 173.661 10.0846 175.736 10.0846C178.064 10.0846 180.037 10.6613 181.651 11.8213C183.264 12.982 184.314 14.5687 184.807 16.5753L180.253 17.7986C179.898 16.7074 179.31 15.854 178.487 15.246C177.665 14.6373 176.729 14.3366 175.679 14.3366C174.49 14.3366 173.509 14.6127 172.737 15.1706C171.965 15.7286 171.396 16.4999 171.029 17.4787C170.662 18.4567 170.479 19.5666 170.479 20.8087C170.479 22.7407 170.915 24.302 171.788 25.4933C172.661 26.6853 173.958 27.2806 175.679 27.2806C176.893 27.2806 177.855 27.0053 178.557 26.4533C179.259 25.9013 179.785 25.1047 180.138 24.064L184.807 25.0987C184.174 27.168 183.067 28.7546 181.486 29.8647C179.904 30.9747 177.969 31.5334 175.679 31.5334ZM196.536 31.5334C194.006 31.5334 191.949 30.9686 190.368 29.8399C188.787 28.7106 187.825 27.124 187.484 25.0799L192.152 24.3646C192.392 25.368 192.924 26.1586 193.746 26.7354C194.568 27.3126 195.606 27.6007 196.858 27.6007C197.959 27.6007 198.813 27.3813 199.414 26.9487C200.015 26.5159 200.312 25.9267 200.312 25.174C200.312 24.7093 200.205 24.3334 199.984 24.0513C199.762 23.7687 199.275 23.4993 198.529 23.2359C197.782 22.9726 196.637 22.64 195.094 22.2387C193.373 21.7873 192.006 21.2979 190.994 20.7773C189.982 20.2567 189.255 19.642 188.812 18.9273C188.369 18.212 188.148 17.3466 188.148 16.3306C188.148 15.0639 188.483 13.96 189.153 13.0193C189.824 12.0786 190.76 11.3513 191.962 10.8433C193.164 10.3353 194.581 10.0846 196.213 10.0846C197.808 10.0846 199.224 10.3287 200.458 10.8179C201.692 11.3073 202.685 12.0032 203.443 12.9066C204.203 13.81 204.671 14.8692 204.848 16.0859L200.179 16.914C200.066 16.0487 199.674 15.3653 198.997 14.8632C198.32 14.3614 197.415 14.0793 196.289 14.0166C195.214 13.954 194.347 14.1107 193.689 14.4933C193.031 14.876 192.702 15.4153 192.702 16.1053C192.702 16.4939 192.835 16.826 193.1 17.1019C193.367 17.378 193.904 17.654 194.708 17.9299C195.511 18.206 196.707 18.5446 198.3 18.9459C199.933 19.3599 201.242 19.8307 202.223 20.3633C203.203 20.8966 203.912 21.536 204.349 22.2759C204.785 23.0166 205 23.9134 205 24.9666C205 27.0113 204.254 28.6166 202.754 29.7833C201.255 30.95 199.18 31.5334 196.536 31.5334Z" fill="#F2A25C"/>
</svg>
